<?xml version="1.0" encoding="iso-8859-1"?>
<!-- Generator: Adobe Illustrator 19.0.0, SVG Export Plug-In . SVG Version: 6.00 Build 0)  -->
<svg version="1.1" id="Capa_1" xmlns="http://www.w3.org/2000/svg" xmlns:xlink="http://www.w3.org/1999/xlink" x="0px" y="0px"
	 viewBox="0 0 490 490" style="enable-background:new 0 0 490 490;" xml:space="preserve">
<g id="line_36_">
	<path d="M428.321,214.161C428.321,95.887,332.434,0,214.161,0S0,95.887,0,214.161s95.887,214.161,214.161,214.161
		c53.624,0,102.517-19.845,140.094-52.415L468.348,490L490,468.348L375.906,354.255
		C408.476,316.678,428.321,267.785,428.321,214.161z M214.161,397.696c-101.2,0-183.535-82.335-183.535-183.536
		S112.96,30.625,214.161,30.625s183.536,82.335,183.536,183.536S315.361,397.696,214.161,397.696z"/>
	<path d="M157.244,314.794l170.933-100.879L157.244,113.037V314.794z M187.869,166.661l80.054,47.255l-80.054,47.254V166.661z"/>
</g>
<g>
</g>
<g>
</g>
<g>
</g>
<g>
</g>
<g>
</g>
<g>
</g>
<g>
</g>
<g>
</g>
<g>
</g>
<g>
</g>
<g>
</g>
<g>
</g>
<g>
</g>
<g>
</g>
<g>
</g>
</svg>
